<svg xmlns="http://www.w3.org/2000/svg" xmlns:xlink="http://www.w3.org/1999/xlink" width="562" height="421" viewBox="0 0 562 421">
  <defs>
    <filter id="Path_142" x="239.173" y="183.895" width="59.251" height="62.156" filterUnits="userSpaceOnUse">
      <feOffset dy="3" input="SourceAlpha"/>
      <feGaussianBlur stdDeviation="3" result="blur"/>
      <feFlood flood-opacity="0.031"/>
      <feComposite operator="in" in2="blur"/>
      <feComposite in="SourceGraphic"/>
    </filter>
    <filter id="Path_143" x="281.439" y="180.241" width="49.412" height="66.467" filterUnits="userSpaceOnUse">
      <feOffset dy="3" input="SourceAlpha"/>
      <feGaussianBlur stdDeviation="3" result="blur-2"/>
      <feFlood flood-opacity="0.031"/>
      <feComposite operator="in" in2="blur-2"/>
      <feComposite in="SourceGraphic"/>
    </filter>
    <filter id="Path_144" x="317.956" y="193.858" width="51.23" height="52.851" filterUnits="userSpaceOnUse">
      <feOffset dy="3" input="SourceAlpha"/>
      <feGaussianBlur stdDeviation="3" result="blur-3"/>
      <feFlood flood-opacity="0.031"/>
      <feComposite operator="in" in2="blur-3"/>
      <feComposite in="SourceGraphic"/>
    </filter>
    <filter id="Path_145" x="356.667" y="180.245" width="49.201" height="66.491" filterUnits="userSpaceOnUse">
      <feOffset dy="3" input="SourceAlpha"/>
      <feGaussianBlur stdDeviation="3" result="blur-4"/>
      <feFlood flood-opacity="0.031"/>
      <feComposite operator="in" in2="blur-4"/>
      <feComposite in="SourceGraphic"/>
    </filter>
    <filter id="Path_146" x="391.452" y="193.865" width="48.543" height="52.851" filterUnits="userSpaceOnUse">
      <feOffset dy="3" input="SourceAlpha"/>
      <feGaussianBlur stdDeviation="3" result="blur-5"/>
      <feFlood flood-opacity="0.031"/>
      <feComposite operator="in" in2="blur-5"/>
      <feComposite in="SourceGraphic"/>
    </filter>
    <filter id="Path_147" x="177.629" y="165.455" width="50.615" height="96.091" filterUnits="userSpaceOnUse">
      <feOffset dy="3" input="SourceAlpha"/>
      <feGaussianBlur stdDeviation="3" result="blur-6"/>
      <feFlood flood-opacity="0.031"/>
      <feComposite operator="in" in2="blur-6"/>
      <feComposite in="SourceGraphic"/>
    </filter>
    <filter id="Path_148" x="122.005" y="165.455" width="50.642" height="96.091" filterUnits="userSpaceOnUse">
      <feOffset dy="3" input="SourceAlpha"/>
      <feGaussianBlur stdDeviation="3" result="blur-7"/>
      <feFlood flood-opacity="0.031"/>
      <feComposite operator="in" in2="blur-7"/>
      <feComposite in="SourceGraphic"/>
    </filter>
    <filter id="Path_149" x="151.876" y="194.235" width="53.042" height="67.31" filterUnits="userSpaceOnUse">
      <feOffset dy="3" input="SourceAlpha"/>
      <feGaussianBlur stdDeviation="3" result="blur-8"/>
      <feFlood flood-opacity="0.031"/>
      <feComposite operator="in" in2="blur-8"/>
      <feComposite in="SourceGraphic"/>
    </filter>
    <clipPath id="clip-Large">
      <rect width="562" height="421"/>
    </clipPath>
  </defs>
  <g id="Large" clip-path="url(#clip-Large)">
    <g id="Adobe_Logo_Black" data-name="Adobe Logo Black" transform="translate(131.005 171.455)">
      <g transform="matrix(1, 0, 0, 1, -131, -171.45)" filter="url(#Path_142)">
        <path id="Path_142-2" data-name="Path 142" d="M189.562,61.517l-3.233,9.977a.727.727,0,0,1-.741.536h-7.822c-.469,0-.608-.264-.536-.661l13.481-38.9a12.563,12.563,0,0,0,.661-4.112.443.443,0,0,1,.4-.469H202.56c.337,0,.469.066.542.4l15.3,43.141c.132.337.066.6-.337.6h-8.747a.661.661,0,0,1-.747-.469l-3.438-10.043Zm13.078-8.43c-1.322-4.45-4.04-12.609-5.289-17.4h-.066c-1.078,4.516-3.511,11.9-5.289,17.4Z" transform="translate(70.96 162)" fill="#fff"/>
      </g>
      <g transform="matrix(1, 0, 0, 1, -131, -171.45)" filter="url(#Path_143)">
        <path id="Path_143-2" data-name="Path 143" d="M241.14,53.715c0-9.64,7.213-17.706,19.551-17.706.536,0,1.21.073,2.222.139V22.838a.423.423,0,0,1,.469-.469h8.5c.337,0,.4.132.4.4V62.614a37.529,37.529,0,0,0,.271,4.919c0,.337-.066.469-.469.608A33.965,33.965,0,0,1,258.8,70.832C248.823,70.832,241.14,65.173,241.14,53.715Zm21.772-9.574a6.942,6.942,0,0,0-2.493-.337c-5.19,0-9.64,3.167-9.64,9.435,0,6.678,3.841,9.574,8.965,9.574a9.507,9.507,0,0,0,3.167-.4Z" transform="translate(49.3 163.88)" fill="#fff"/>
      </g>
      <g transform="matrix(1, 0, 0, 1, -131, -171.45)" filter="url(#Path_144)">
        <path id="Path_144-2" data-name="Path 144" d="M329.6,60.217c0,10.579-6.876,17.594-16.582,17.594-11.524,0-16.648-8.694-16.648-17.389,0-9.574,6.4-17.462,16.781-17.462C324.007,42.986,329.6,51.119,329.6,60.217Zm-23.729.073c0,5.951,2.764,9.706,7.273,9.706,3.914,0,6.876-3.372,6.876-9.574,0-5.289-2.155-9.64-7.273-9.64C308.84,50.782,305.871,54.286,305.871,60.289Z" transform="translate(30.59 156.9)" fill="#fff"/>
      </g>
      <g transform="matrix(1, 0, 0, 1, -131, -171.45)" filter="url(#Path_145)">
        <path id="Path_145-2" data-name="Path 145" d="M363.608,22.37c.542,0,.661.066.661.542V36.731a21.488,21.488,0,0,1,5.673-.721c9.918,0,16.179,7.015,16.179,16.047,0,12.6-9.977,18.8-20.219,18.8a35.313,35.313,0,0,1-10.579-1.547.78.78,0,0,1-.4-.661V22.839c0-.337.132-.469.469-.469Zm4.628,21.567a13.547,13.547,0,0,0-3.967.542V62.748a10.321,10.321,0,0,0,2.493.271c5.124,0,9.772-3.1,9.772-10.116.013-6.129-3.557-8.959-8.278-8.959Z" transform="translate(10.75 163.87)" fill="#fff"/>
      </g>
      <g transform="matrix(1, 0, 0, 1, -131, -171.45)" filter="url(#Path_146)">
        <path id="Path_146-2" data-name="Path 146" d="M417.1,62.825c.337,3.841,3.035,7.008,9.64,7.008a20.88,20.88,0,0,0,8.291-1.547c.2-.139.4-.066.4.337v6.4c0,.476-.132.661-.469.813a22.648,22.648,0,0,1-10.314,1.984c-12.668,0-17.118-8.694-17.118-17.052,0-9.3,5.726-17.8,16.311-17.8,10.175,0,14.222,7.888,14.222,14.546a21.4,21.4,0,0,1-.337,4.516.569.569,0,0,1-.536.536,61.488,61.488,0,0,1-6.949.271Zm8.767-6.539a22.433,22.433,0,0,0,3.372-.132v-.476a5.488,5.488,0,0,0-5.732-5.289c-4.245,0-6.07,3.167-6.473,5.951Z" transform="translate(-7.08 156.9)" fill="#fff"/>
      </g>
      <g transform="matrix(1, 0, 0, 1, -131, -171.45)" filter="url(#Path_147)">
        <path id="Path_147-2" data-name="Path 147" d="M84.13,0h32.616V78.091Z" transform="translate(102.5 171.45)" fill="#fff"/>
      </g>
      <g transform="matrix(1, 0, 0, 1, -131, -171.45)" filter="url(#Path_148)">
        <path id="Path_148-2" data-name="Path 148" d="M32.642,0H0V78.091Z" transform="translate(131 171.45)" fill="#fff"/>
      </g>
      <g transform="matrix(1, 0, 0, 1, -131, -171.45)" filter="url(#Path_149)">
        <path id="Path_149-2" data-name="Path 149" d="M59.441,43.53,80.222,92.84H66.6l-6.215-15.7H45.18Z" transform="translate(115.7 156.71)" fill="#fff"/>
      </g>
    </g>
  </g>
</svg>
