<svg xmlns="http://www.w3.org/2000/svg" xmlns:xlink="http://www.w3.org/1999/xlink" width="271" height="179" viewBox="0 0 271 179">
  <defs>
    <clipPath id="clip-Small_12">
      <rect width="271" height="179"/>
    </clipPath>
  </defs>
  <g id="Small_12" data-name="Small – 12" clip-path="url(#clip-Small_12)">
    <g id="Canada_Logo_Black" data-name="Canada Logo Black" transform="translate(55.752 70.5)">
      <g id="layer" transform="translate(-0.013)">
        <g id="wmms">
          <path id="Path_140" data-name="Path 140" d="M522.358.8H528.3V12.693h-5.946ZM512.075,6.746l-.355.109s2.046,1.718,2.046,1.828c.109.109.218.109.109.464s-.218.682-.218.682,1.828-.355,2.046-.464c.218,0,.355,0,.355.218s-.109,2.182-.109,2.182h.573s-.109-2.046-.109-2.182c0-.218.109-.218.355-.218s2.046.464,2.046.464a4.294,4.294,0,0,0-.218-.682c-.109-.355,0-.355.109-.464s2.046-1.828,2.046-1.828l-.355-.109c-.218-.109-.109-.218-.109-.355s.355-1.255.355-1.255-.927.218-1.036.218-.218,0-.218-.109a3.182,3.182,0,0,0-.218-.573s-1.037,1.146-1.146,1.255c-.218.218-.464,0-.355-.218,0-.218.573-2.619.573-2.619s-.573.355-.791.464-.355.109-.355-.109c-.109-.218-.791-1.5-.791-1.609,0,0-.682,1.364-.791,1.609s-.218.218-.355.109c-.218-.109-.791-.464-.791-.464s.57,2.4.57,2.619-.109.355-.355.218l-1.146-1.255a1.609,1.609,0,0,1-.218.464c0,.109-.109.218-.218.109a10.911,10.911,0,0,1-1.146-.218,9.2,9.2,0,0,0,.464,1.255c-.025.109-.025.355-.243.464ZM504.41.8h5.946V12.693H504.41Z" transform="translate(-370.933 -0.582)" fill="#fff"/>
          <path id="Path_141" data-name="Path 141" d="M158.636,34.994a2.127,2.127,0,0,1-1.888,1.33c-.665,0-2.686-.106-2.686-5.345V19.731c0-3.457-2.686-6.249-9.6-6.249-7.472,0-7.578,3.67-7.578,4.574-.106,1.01.452,2.127,2.34,2.127,1.675,0,2.127-1.888,2.34-2.553.213-.771.346-3,3.35-3,2.553,0,4.122,2.234,4.228,5.451v1.782h0v.106a2.666,2.666,0,0,1-1.782,2.127c-1.33.665-5.238,1.223-5.691,1.33-1.569.346-5.9,1.463-5.8,6.01.106,4.467,4.574,6.01,7.685,5.9a8.979,8.979,0,0,0,5.584-1.994c.452-.346.452-.346.771.106.452.452,1.888,1.888,5.345,1.888,3.563,0,4.015-1.675,4.228-2.234C159.647,34.755,158.849,34.436,158.636,34.994ZM144.7,36.217a3.754,3.754,0,0,1-3.909-3.909c0-1.223.665-3.8,3.8-5.584a29.138,29.138,0,0,1,4.228-1.994h.213a.372.372,0,0,1,.106.213h0v.106h0v.106h0v4.68c.024,3.7-1.755,6.382-4.441,6.382Zm-10.264-.106c-.452-.106-3.244.213-3.244-8.243V1.223c0-.346,0-1.223-1.01-1.223s-7.685.346-8.14.452c-.452,0-.771.558,0,.558.771.106,4.361.346,4.361,6.249V15.4c0,.213,0,.346-.106.452v.106h0c-.106.106-.213,0-.558-.213a11.345,11.345,0,0,0-6.355-1.994c-5.238,0-11.7,3.8-11.7,11.594,0,8.35,5.9,12.365,12.046,12.365a11.282,11.282,0,0,0,5.9-1.782c.9-.558.771-.452.9.346.106.558,0,1.675,1.569,1.569,1.675-.213,5.691-.665,6.462-.771.771-.4.534-.851-.13-.957Zm-13.827.319c-4.893,0-7.472-5.8-7.472-11.381,0-6.143,3.457-10.264,7.126-10.025,4.786.346,6.01,4.122,6.143,10.929v1.463c-.109,6.674-2.9,9.014-5.8,9.014Zm-13.03-1.436a2.127,2.127,0,0,1-1.888,1.33c-.665,0-2.686-.106-2.686-5.345V19.731c0-3.457-2.686-6.249-9.6-6.249-7.472,0-7.578,3.67-7.578,4.574-.106,1.01.452,2.127,2.34,2.127,1.675,0,2.127-1.888,2.34-2.553.213-.771.346-3,3.35-3,2.553,0,4.228,2.234,4.228,5.584v1.117a2.823,2.823,0,0,1-1.888,2.9c-1.33.665-5.238,1.223-5.691,1.33-1.569.346-5.9,1.463-5.8,6.01.106,4.467,4.574,6.01,7.685,5.9a8.979,8.979,0,0,0,5.584-1.994c.452-.346.452-.346.771.106.452.452,1.888,1.888,5.345,1.888,3.563,0,4.015-1.675,4.228-2.234.266-.479-.425-.8-.745-.239ZM93.754,36.217a3.754,3.754,0,0,1-3.909-3.909c0-1.223.665-3.8,3.8-5.584a29.138,29.138,0,0,1,4.228-1.994h.213v.106h0v5.132c.024,3.563-1.782,6.249-4.334,6.249Zm-10.69-.106c-.9-.213-2.446-1.223-2.446-6.143V21.06c0-2.127.213-7.578-8.137-7.578a11.261,11.261,0,0,0-7.02,2.34c-.346.346-.558.452-.665-.106-.106-.452-.346-1.117-.452-1.569-.106-.346-.346-.665-1.117-.558s-5.691.9-6.568,1.117c-.771.213-.558.558,0,.665s3.244.346,3.244,4.893v9.6c0,5.584-1.117,6.01-2.127,6.355-1.33.346-.665.771-.106.771H67.827c.665,0,1.01-.665-.346-.9s-2.553-1.01-2.553-5.345V24.6c0-2.34-.558-9.466,5.9-9.6,4.574-.106,5.026,3.67,5.026,6.143v9.493c0,3.909-1.117,5.132-2.446,5.345-1.223.213-1.01.771-.346.771H83.436c.505.239,1.064-.319-.372-.638Zm-27.1-1.117a2.127,2.127,0,0,1-1.888,1.33c-.665,0-2.686-.106-2.686-5.345V19.731c0-3.457-2.686-6.249-9.6-6.249-7.472,0-7.578,3.67-7.578,4.574-.106,1.01.452,2.127,2.34,2.127,1.675,0,2.127-1.888,2.34-2.553.213-.771.346-3,3.35-3,2.553,0,4.122,2.234,4.228,5.451V21.3c0,.213,0,.452-.106.558v.106h0a2.666,2.666,0,0,1-1.782,2.127c-1.33.665-5.238,1.223-5.691,1.33-1.569.346-5.9,1.463-5.8,6.01.106,4.467,4.574,6.01,7.685,5.9a8.979,8.979,0,0,0,5.584-1.994c.452-.346.452-.346.771.106.452.452,1.888,1.888,5.345,1.888,3.563,0,4.015-1.675,4.228-2.234.239-.346-.532-.665-.745-.106ZM42.034,36.217a3.755,3.755,0,0,1-3.909-3.909c0-1.356.665-3.8,3.8-5.584a29.138,29.138,0,0,1,4.228-1.994h.213a.372.372,0,0,1,.106.213h0v.213h0v.106h0v4.68c0,3.59-1.782,6.276-4.441,6.276ZM31.318,26.511c-1.117,3.563-3.244,9.36-10.929,9.6-8.031.106-12.817-5.345-13.056-15.5C6.987,9.786,11.691,1.542,18.926,1.33c8.137-.106,11.035,9.6,11.142,11.035a.788.788,0,1,0,1.569-.106c0-.558-.665-10.158-.9-11.248S29.616.346,29.4.8c-.106.346.106-.346-.346.665s-1.675.452-2.127.346A17.255,17.255,0,0,0,18.9.027C9.46.213-.219,7.233-.009,19.491A18.441,18.441,0,0,0,18.711,38c8.137-.106,12.711-5.238,14.04-11.142.455-1.463-.981-1.782-1.433-.346Z" transform="translate(0.013)" fill="#fff"/>
        </g>
      </g>
    </g>
  </g>
</svg>
