<svg xmlns="http://www.w3.org/2000/svg" xmlns:xlink="http://www.w3.org/1999/xlink" width="271" height="179" viewBox="0 0 271 179">
  <defs>
    <filter id="Path_319" x="83.659" y="37.495" width="94.207" height="97.292" filterUnits="userSpaceOnUse">
      <feOffset dy="3" input="SourceAlpha"/>
      <feGaussianBlur stdDeviation="3" result="blur"/>
      <feFlood flood-opacity="0.161"/>
      <feComposite operator="in" in2="blur"/>
      <feComposite in="SourceGraphic"/>
    </filter>
    <filter id="Path_320" x="50.206" y="115.885" width="167.731" height="31.619" filterUnits="userSpaceOnUse">
      <feOffset dy="3" input="SourceAlpha"/>
      <feGaussianBlur stdDeviation="3" result="blur-2"/>
      <feFlood flood-opacity="0.161"/>
      <feComposite operator="in" in2="blur-2"/>
      <feComposite in="SourceGraphic"/>
    </filter>
    <filter id="Path_321" x="199.879" y="118.631" width="20.914" height="20.922" filterUnits="userSpaceOnUse">
      <feOffset dy="3" input="SourceAlpha"/>
      <feGaussianBlur stdDeviation="3" result="blur-3"/>
      <feFlood flood-opacity="0.161"/>
      <feComposite operator="in" in2="blur-3"/>
      <feComposite in="SourceGraphic"/>
    </filter>
    <clipPath id="clip-Small_10">
      <rect width="271" height="179"/>
    </clipPath>
  </defs>
  <g id="Small_10" data-name="Small – 10" clip-path="url(#clip-Small_10)">
    <g id="Dreamworks_Logo" data-name="Dreamworks Logo" transform="translate(59.166 43.498)">
      <g id="Layer_1" data-name="Layer 1" transform="translate(0.04 -0.003)">
        <g transform="matrix(1, 0, 0, 1, -59.21, -43.5)" filter="url(#Path_319)">
          <path id="Path_319-2" data-name="Path 319" d="M125.065,20.185v59.1h-.238V21.055c0-.508.057-.979-.687-.989-.116,0-.227-.411-.341-.633l.184-.187c.833.195,1.681.346,2.5.6a39.887,39.887,0,0,1,9.3,4.482A94.688,94.688,0,0,1,154.889,39.95c.289.308.557.638.857.938A.424.424,0,0,0,156.1,41c.092-.032.159-.192.2-.308.059-.168.041-.378.138-.511a.689.689,0,0,1,.446-.243c.081,0,.173.216.27.327a5.154,5.154,0,0,0,1.06,1.17,2.222,2.222,0,0,1,1.124,1.419c.1.408.308.67.706.708,1.241.124,2.484.216,3.728.314a.354.354,0,0,0,.27-.087c.524-.684,1.281-.595,2-.587a2.673,2.673,0,0,1,1.957.811c.068.07.165.108.119.078.6-.189,1.081-.37,1.568-.492a4.847,4.847,0,0,0,2.954-2.035,3.856,3.856,0,0,0,.27-1.081c-.438.165-.749.287-1.065.4-.605.216-.908,0-1-.614-.024-.178-.205-.338-.319-.5-.3-.432-.27-1.081-.827-1.365a1.279,1.279,0,0,1,.251-.646.73.73,0,0,0,.178-.916,11.411,11.411,0,0,1-.338-1.173l-.473.387c-.151-.611-.487-1.1-.184-1.746a5.786,5.786,0,0,1,3.892-3.111,13.536,13.536,0,0,1,3.16-.357,4.139,4.139,0,0,1,1.265.384c-.078-.151-.178-.343-.27-.541l.105-.089.684.811.768.041-.754.522a1.821,1.821,0,0,1,1.13,1.492,13.742,13.742,0,0,1,.308,2.39c.022,1.16-.241,2.222-1.568,2.649l1.314-.168c-.243.505-.411.86-.592,1.241a4.712,4.712,0,0,1,2.644,4.114c.146,1.292.395,2.573.595,3.857.078-.111.216-.292.341-.484a30.571,30.571,0,0,0,4.374-12.332,29.971,29.971,0,0,0-2.054-16.705A27.827,27.827,0,0,0,173.3,5.48,30.951,30.951,0,0,0,160.887.957a.446.446,0,0,1-.316-.173,4.819,4.819,0,0,1,.5-.151A30.909,30.909,0,0,1,180.722,3c10,4.774,16.067,12.7,18.476,23.452,2.163,9.634-.095,18.36-5.785,26.269a32.278,32.278,0,0,1-12.145,9.861,36.178,36.178,0,0,1-16.184,3.728,1.452,1.452,0,0,0-.768.219.562.562,0,0,0-.084.541c.36.4.2.746-.051,1.081-.4.541-.827,1.081-1.241,1.638a.5.5,0,0,1-.784.127.7.7,0,0,0-1.116.241c-.487.76-.995,1.508-1.425,2.3a2.679,2.679,0,0,0-.157,2.335,2.3,2.3,0,0,1,.038,1.081.773.773,0,0,1-.811.741,6.793,6.793,0,0,0-3.733,1.235,7.218,7.218,0,0,1-1.246.616,2.027,2.027,0,0,1-2.008-.251,3.052,3.052,0,0,0-.76-.357c-.773-.287-.933-.811-.387-1.543.843.66,1.57.235,2.271-.305a14.231,14.231,0,0,0,5.1-6.961c.308-.949.33-.943-.489-1.5-.614-.416-.616-.476-.141-1.068.287-.354.562-.716.895-1.143a40.628,40.628,0,0,1-12.015-6.906,29.794,29.794,0,0,0,8.707,2.717c-.1-.219-.235-.378-.235-.541a.833.833,0,0,1,.192-.522.441.441,0,0,1,.424-.035,1.428,1.428,0,0,0,1.435-.065c.984-.505,2.006-.941,2.957-1.5a3.644,3.644,0,0,0,1.635-2.308c.114-.424-.019-.614-.432-.741-1.054-.322-1.054-.341-.906-1.427.046-.338.13-.673.181-1.011a.84.84,0,0,1,.9-.841c.23-.014.438-.43.619-.749-.865.035-.811-.716-1.1-1.1-1.595.319-1.592.319-2.073-1.208a1.449,1.449,0,0,0-.27-.527c-.516-.578-.508-.754.119-1.2l.376-.27c-.424-.746-.835-1.476-1.252-2.206-.03-.051-.076-.124-.122-.13-.892-.111-1-.949-1.419-1.5-.27-.343-.6-.624-.887-.949-.127-.141-.335-.354-.3-.476.141-.492-.17-.749-.438-1.041a94.513,94.513,0,0,0-18.765-15.473,47.243,47.243,0,0,0-8.2-4.387C126.644,20.679,125.949,20.482,125.065,20.185Zm41.539,30.9h-.184c.238.916-.557,1.892.232,2.779.051.057.035.2.014.292-.151.749-.311,1.495-.468,2.241-.073.341-.246.468-.608.368-.438-.119-.889-.187-1.408-.292v1.868l4.138-1.716c-.338-.957-.681-1.854-.965-2.773S166.853,52.019,166.6,51.087Zm-3.887-4.4L158.9,45.045l.811,1.535c.638-.081.722-.041,1.024.443.138.222.235.511.432.641a1.516,1.516,0,0,0,.9.27c.184-.019.384-.324.495-.541a2.932,2.932,0,0,0,.157-.706Zm8.247,1.665,1.711,2.792.3-.073a21.382,21.382,0,0,0,.019-2.241c-.092-1-.189-1.03-1.17-.743-.251.076-.5.157-.857.27Z" transform="translate(-31.14 43.5)" fill="#fff"/>
        </g>
        <g transform="matrix(1, 0, 0, 1, -59.21, -43.5)" filter="url(#Path_320)">
          <path id="Path_320-2" data-name="Path 320" d="M31.015,298.745c1.181,1.206,2.33,2.387,3.49,3.56a1.146,1.146,0,0,0,1.395.2c.478-.214.487-.66.487-1.081,0-1.976.019-3.952,0-5.928,0-1.019-.219-1.206-1.222-1.365-.17-.027-.319-.208-.478-.319.165-.1.33-.287.5-.287q5.052-.024,10.107,0a.638.638,0,0,1,.487.362c.116.692.157,1.395.222,2.079-.906.3-1.008.27-1.322-.484a1.606,1.606,0,0,0-1.514-1.1c-.684-.032-1.368-.07-2.054-.086-.441,0-.654.2-.641.673.022.743.019,1.492,0,2.238,0,.389.135.541.541.524.562-.027,1.13,0,1.692-.032s.941-.224,1.043-.811.541-.4.862-.357c.138.019.324.319.332.495.035.868.016,1.735.016,2.6,0,.27-.022.541-.4.541-.324,0-.681.108-.811-.395-.222-.86-.378-.965-1.246-1.008a11.281,11.281,0,0,0-1.571,0,.6.6,0,0,0-.422.4c-.03.887,0,1.776,0,2.663a.668.668,0,0,0,.722.727c1.106-.014,2.214-.043,3.314-.127.733-.054,1.081-.649,1.4-1.214l3.309-5.639c.27-.451.541-.906.8-1.352a1.722,1.722,0,0,1,1.854-.87c.184.038.362.287.47.478l4.055,7.3c.227.408.5.789.757,1.181l.211-.049c.122-.724.27-1.446.357-2.176.151-1.465.27-2.93.373-4.4.076-1.1-.227-1.408-1.352-1.554a1.754,1.754,0,0,1-.554-.3c.2-.108.395-.3.595-.305,1.492-.027,2.973,0,4.479-.024a.954.954,0,0,1,.887.489c1.081,1.595,2.208,3.179,3.317,4.768.135.195.27.389.454.638.135-.189.243-.322.332-.468,1-1.622,2.006-3.265,2.973-4.912a.925.925,0,0,1,.922-.514c1.352.022,2.7,0,4.055,0a3.182,3.182,0,0,0-2.668-2.627.735.735,0,0,1-.508-.349c-.119-.373.143-.468.484-.465h9.139c.27,0,.6-.095.622.359s-.314.424-.611.454-.646.057-.962.111c-.562.1-.695.308-.465.841.508,1.184,1.046,2.357,1.579,3.533.495,1.095.995,2.187,1.541,3.39.165-.305.27-.489.365-.681,1.219-2.479,2.449-4.952,3.649-7.439a.994.994,0,0,1,.919-.589,2.218,2.218,0,0,1,2.573,1.457c1.143,2.244,2.465,4.4,3.714,6.587.108.189.224.373.376.624a4.1,4.1,0,0,0,.27-.451q1.241-2.857,2.468-5.72a6.17,6.17,0,0,0,.216-.689c.151-.514-.095-.781-.57-.851s-.97-.062-1.443-.154c-.17-.032-.305-.27-.46-.392.154-.13.308-.373.465-.373q3.479-.035,6.961,0c.149,0,.3.216.449.333-.138.154-.27.435-.411.441a3.033,3.033,0,0,0-2.625,1.776L97.987,295a1.408,1.408,0,0,0,.295-.086,10.869,10.869,0,0,1,7.38-1.73,12.343,12.343,0,0,1,2.725.516,5.755,5.755,0,0,1,3.887,3.182c0-.695.03-1.433,0-2.162-.027-.565-.47-.687-.946-.73-.343-.027-.711-.038-.638-.6.192-.013.368-.035.541-.035,2.481,0,4.963-.03,7.444.019a16.028,16.028,0,0,1,2.868.357,3.6,3.6,0,0,1,1.392.689,1.718,1.718,0,0,1,.13,2.773,7.8,7.8,0,0,1-1.543.922,5.429,5.429,0,0,1-.762.27,4.793,4.793,0,0,0,.424.541q1.335,1.443,2.684,2.873a2.635,2.635,0,0,0,.511.422c.757.46,1.384.162,1.446-.719.049-.7.032-1.411.032-2.117v-4.055c0-1.008-.224-1.224-1.222-1.352a.776.776,0,0,1-.295-.049c-.1-.068-.27-.214-.243-.27a.643.643,0,0,1,.295-.292c.076-.046.2-.016.3-.016,2.038,0,4.076,0,6.112.014.2,0,.4.192.605.295a1.921,1.921,0,0,1-.562.316c-.865.143-1.081.335-1.114,1.2s0,1.771,0,2.8a54.475,54.475,0,0,0,4.644-3.676c-.027-.07-.057-.138-.084-.205a4.008,4.008,0,0,1-.727-.124,2.017,2.017,0,0,1-.462-.341c.154-.089.305-.254.46-.254q2.7-.03,5.385,0c.149,0,.3.178.443.27-.138.111-.27.308-.416.322-2.473.211-4.125,1.968-6.139,3.138a2.469,2.469,0,0,0,.224.314c1.516,1.352,3.022,2.73,4.555,4.074a3.141,3.141,0,0,0,1.925.841c-.23-.749-.432-1.408-.63-2.057.811-.424.981-.389,1.454.216a4.7,4.7,0,0,0,3.963,1.96,2.852,2.852,0,0,0,.3-.019c.919-.105,1.533-.56,1.622-1.2s-.27-1.176-1.2-1.533c-.862-.332-1.779-.541-2.638-.873a9.675,9.675,0,0,1-2.092-1.054,1.943,1.943,0,0,1-.219-3.1,5.308,5.308,0,0,1,3.206-1.411,14.057,14.057,0,0,1,4.755.178.611.611,0,0,1,.584.562c.1.614.27,1.216.4,1.814-.846.349-.97.311-1.462-.389a3.311,3.311,0,0,0-3.747-1.268c-.514.176-.989.432-1.027,1.054s.4.876.857,1.049c.846.322,1.73.541,2.576.868a12.323,12.323,0,0,1,2.314,1.019,2.234,2.234,0,0,1,.065,3.944,6.674,6.674,0,0,1-3.938,1.192c-1.3.016-2.6-.2-3.9-.284-.411-.024-.83.1-1.243.1-1.514.014-3.027.019-4.541,0a1.236,1.236,0,0,1-.714-.351c-1.406-1.3-2.792-2.627-4.184-3.941-.086-.081-.184-.149-.43-.343v1.411c0,.524,0,1.049.022,1.573.041.673.292.916.968,1.014a.946.946,0,0,1,.3.035c.184.1.351.235.527.354-.192.086-.384.249-.578.251-1.208.024-2.419,0-3.63.016-1.33.022-2.66.065-3.987.111a5.385,5.385,0,0,1-4.776-2.36c-.346-.473-.695-.941-1.043-1.411a1.06,1.06,0,0,0-1.119-.446c0,.895-.024,1.757,0,2.617a.841.841,0,0,0,.83.811,4.025,4.025,0,0,1,.654.108.381.381,0,0,1,.219.286c0,.089-.146.205-.254.254a.93.93,0,0,1-.36.019c-2.117,0-4.236,0-6.355-.014-.2,0-.405-.186-.608-.27a1.873,1.873,0,0,1,.562-.319c1.052-.168,1.208-.316,1.249-1.4.022-.584,0-1.168,0-1.906a4.7,4.7,0,0,1-2.56,2.919,13.69,13.69,0,0,1-3.082,1.016,11.994,11.994,0,0,1-6.6-.527,8.893,8.893,0,0,1-1.954-1.062,4.25,4.25,0,0,1-1.784-3.219c-.37.751-.7,1.406-1.016,2.068-.427.889-.862,1.779-1.268,2.679a.724.724,0,0,1-.738.478c-2,.049-2,.059-3.017-1.689q-1.711-2.952-3.419-5.925c-.111-.189-.23-.37-.4-.651-.165.3-.292.516-.408.738-1.214,2.3-2.433,4.6-3.633,6.906a1.1,1.1,0,0,1-.97.63c-1.462.227-2.217-.354-2.819-1.7-1.106-2.463-2.433-4.825-3.684-7.217-.1-.192-.411-.47-.508-.43a1.668,1.668,0,0,0-.787.606,1.783,1.783,0,0,0-.065.889c.081,1.892.165,3.784.27,5.677.057,1.06.222,1.206,1.281,1.392.181.032.335.227.5.346-.173.089-.349.257-.522.27q-3.244.024-6.487,0c-.17,0-.335-.184-.5-.284.157-.108.3-.287.473-.314,1.227-.195,1.333-.3,1.335-1.543,0-1.789,0-3.582-.138-5.406-.095.138-.2.27-.287.411q-1.965,3.244-3.93,6.46a1.133,1.133,0,0,1-1.952,0q-1.789-2.879-3.568-5.76c-.1-.168-.219-.324-.327-.487l-.165.019q-.041,2.611-.081,5.22a.911.911,0,0,0,.846.941c.316.068.643.076.954.154.141.035.254.184.378.27a2.548,2.548,0,0,1-.422.308.868.868,0,0,1-.357.013h-8.6a.93.93,0,0,1-.36-.013,2.666,2.666,0,0,1-.422-.308,1.622,1.622,0,0,1,.376-.286,2.847,2.847,0,0,1,.6-.092c.446-.065.541-.3.332-.681a.542.542,0,0,1-.027-.057c-.695-1.525-.695-1.525-2.4-1.525h-.724c-1.438,0-1.741.243-2.138,1.665-.1.365.027.541.376.589a7.113,7.113,0,0,1,.838.119.426.426,0,0,1,.27.292c0,.1-.165.246-.287.27a1.892,1.892,0,0,1-.541.022h-11.8c-1.081,0-2.162.046-3.263.024a4.9,4.9,0,0,1-4.033-2.071q-.592-.811-1.176-1.622a1.038,1.038,0,0,0-1.219-.457c.049.93.051,1.892.165,2.83.07.576.646.565,1.081.684a2.186,2.186,0,0,1,.541.322c-.187.1-.373.287-.56.287q-3.119.032-6.233,0c-.178,0-.354-.205-.541-.314a1.657,1.657,0,0,1,.519-.284c1.065-.181,1.27-.381,1.276-1.454q.016-3,0-5.99c0-.811-.238-1.043-.97-1.116a4.749,4.749,0,0,1-.541,4.866,7.028,7.028,0,0,1-2.782,2.273A16.218,16.218,0,0,1,12,303.06c-3.809.154-7.623.132-11.434.181-.27,0-.524.014-.524-.389s.246-.392.519-.416c1.838-.159,2.111-.438,2.122-2.268.014-2.338,0-4.679,0-7.028v-.184c-.046-1.584-.292-1.838-1.854-1.995A.687.687,0,0,1,.3,290.65c-.108-.316-.014-.6.435-.576s.887,0,1.33,0h8.474a23.516,23.516,0,0,1,6.817.862,8.48,8.48,0,0,1,3.86,2.306,1.106,1.106,0,0,0,.743.27c2.3.022,4.6,0,6.9.027a13.2,13.2,0,0,1,2.463.238,4.905,4.905,0,0,1,1.714.7,1.835,1.835,0,0,1,.092,3.146A19.3,19.3,0,0,1,31.015,298.745Zm-22.663-2.6h.057c0,1.489-.049,2.973.016,4.468.043.995.478,1.408,1.47,1.519a6.809,6.809,0,0,0,1.8-.054,5.354,5.354,0,0,0,4.547-5.252,4.974,4.974,0,0,0-4.106-5.341,13.764,13.764,0,0,0-2.754-.254c-.946-.024-1.014.076-1.024,1.049C8.341,293.566,8.352,294.864,8.352,296.142Zm99.569,2.541a5.408,5.408,0,0,0-.979-3.306,3.325,3.325,0,0,0-5.487.162,5.238,5.238,0,0,0,.876,5.982,3.568,3.568,0,0,0,3.66.735,2.781,2.781,0,0,0,1.817-2.554C107.865,299.365,107.884,299.024,107.921,298.683Zm-81.2-2.26c0,.505-.016,1.011,0,1.511a.524.524,0,0,0,.238.4,2.6,2.6,0,0,0,2.725-1.141,1.914,1.914,0,0,0-.249-2.2,2.488,2.488,0,0,0-2.387-.643.787.787,0,0,0-.324.565C26.69,295.4,26.72,295.921,26.717,296.424Zm89.589-.192h0v.606c0,1.381.287,1.587,1.662,1.187a2.014,2.014,0,0,0,1.584-2.133,1.992,1.992,0,0,0-1.865-1.746,7.189,7.189,0,0,0-.724-.016c-.449,0-.668.195-.657.657S116.307,295.75,116.307,296.232Zm-64.842,3.176c-.468-.933-.892-1.781-1.37-2.741l-1.352,2.741Z" transform="translate(59.17 -168.11)" fill="#fff"/>
        </g>
        <g transform="matrix(1, 0, 0, 1, -59.21, -43.5)" filter="url(#Path_321)">
          <path id="Path_321-2" data-name="Path 321" d="M556.657,301.619a1.4,1.4,0,0,1-1.441,1.454,1.462,1.462,0,0,1-1.468-1.457,1.419,1.419,0,0,1,1.5-1.462,1.352,1.352,0,0,1,1.408,1.465Zm-1.006.908-.524-.611c.07.092.143.181.216.27a1.549,1.549,0,0,1-.541.157c-.076,0-.165-.27-.181-.438a8.153,8.153,0,0,1,0-.851.795.795,0,0,0-.159,1.143.907.907,0,0,0,1.189.33Zm.224-.249c.37-.6.365-1.157-.035-1.435a2.956,2.956,0,0,0-.9-.27l-.051.181.178.024c.811.054.857.154.651.93-.038.141.086.327.159.565Z" transform="translate(-344.87 -175.52)" fill="#fff"/>
        </g>
      </g>
    </g>
  </g>
</svg>
