<svg xmlns="http://www.w3.org/2000/svg" xmlns:xlink="http://www.w3.org/1999/xlink" width="271" height="179" viewBox="0 0 271 179">
  <defs>
    <filter id="Path_342" x="42.429" y="58.8" width="52.478" height="67.4" filterUnits="userSpaceOnUse">
      <feOffset dy="3" input="SourceAlpha"/>
      <feGaussianBlur stdDeviation="3" result="blur"/>
      <feFlood flood-opacity="0.161"/>
      <feComposite operator="in" in2="blur"/>
      <feComposite in="SourceGraphic"/>
    </filter>
    <filter id="Path_343" x="84.852" y="63.471" width="143.72" height="58.031" filterUnits="userSpaceOnUse">
      <feOffset dy="3" input="SourceAlpha"/>
      <feGaussianBlur stdDeviation="3" result="blur-2"/>
      <feFlood flood-opacity="0.161"/>
      <feComposite operator="in" in2="blur-2"/>
      <feComposite in="SourceGraphic"/>
    </filter>
    <clipPath id="clip-Small_1">
      <rect width="271" height="179"/>
    </clipPath>
  </defs>
  <g id="Small_1" data-name="Small – 1" clip-path="url(#clip-Small_1)">
    <g id="Layer_2" data-name="Layer 2" transform="translate(51.429 64.8)">
      <g id="Layer_1" data-name="Layer 1">
        <g transform="matrix(1, 0, 0, 1, -51.43, -64.8)" filter="url(#Path_342)">
          <path id="Path_342-2" data-name="Path 342" d="M0,0H34.477V49.4H0ZM4.969,44.427H29.49V4.975H4.969Z" transform="translate(51.43 64.8)" fill="#fff" fill-rule="evenodd"/>
        </g>
        <g transform="matrix(1, 0, 0, 1, -51.43, -64.8)" filter="url(#Path_343)">
          <path id="Path_343-2" data-name="Path 343" d="M590.056,80.813h-2.133c-2.8-3.958-5.58-7.889-8.355-12.334h-.02V80.813h-2.361v-17.2h2.135c2.8,3.93,5.576,7.834,8.325,12.255h.049V63.617h2.361v17.2Zm5.606-6.806c.684-2.261,1.373-4.349,1.992-7h.05c.687,2.656,1.3,4.743,1.94,7Zm1.124-10.39-5.941,17.2H593.4l1.494-4.694h5.186l1.348,4.694h3.294l-5.478-17.2Zm10.712,17.2V65.923h-4.521V63.617h11.987v2.307h-4.517v14.89Zm8.421-17.2h2.927v17.2h-2.927Zm12.017,15.031c-3.074,0-4.155-3.393-4.155-6.682,0-3.168,1.227-6.19,4.155-6.19s4.146,3.024,4.146,6.19C632.082,75.258,631,78.648,627.935,78.648Zm0,2.456c4.494,0,7.293-4,7.293-9.139,0-4.813-3.091-8.645-7.293-8.645s-7.3,3.831-7.3,8.645C620.633,77.1,623.438,81.1,627.935,81.1Zm21.957-.291h-2.139c-2.8-3.958-5.58-7.889-8.353-12.334h-.024V80.813h-2.349v-17.2h2.139c2.8,3.93,5.574,7.834,8.321,12.255h.05V63.617h2.36v17.2Zm5.6-6.806c.69-2.261,1.374-4.349,1.992-7h.049c.688,2.656,1.3,4.743,1.937,7Zm1.135-10.39-5.944,17.2h2.556l1.495-4.694h5.186l1.351,4.694h3.29l-5.479-17.2Zm8.789,0h2.929V78.5h5.816v2.31h-8.745ZM588.243,95.2v7.1a13.524,13.524,0,0,1-4.889,1.059c-5.062,0-8.254-3.93-8.254-8.991,0-4.694,3.193-8.794,8.351-8.794a7.345,7.345,0,0,1,4.175,1.328l-.959,2.039a6.425,6.425,0,0,0-3.144-.905c-3.142,0-5.281,2.482-5.281,6.388,0,4.074,2.458,6.48,4.988,6.48a4.3,4.3,0,0,0,2.065-.416V95.2Zm10.543-7.024h-4.919v4.714h4.814V95.2h-4.814v5.548h5.8v2.312h-8.747v-17.2h7.869Zm9.088,12.72c-3.074,0-4.156-3.387-4.156-6.681,0-3.166,1.228-6.188,4.156-6.188s4.146,3.024,4.146,6.188c0,3.294-1.083,6.681-4.146,6.681Zm0,2.456c4.492,0,7.291-4,7.291-9.138,0-4.813-3.093-8.648-7.291-8.648s-7.3,3.836-7.3,8.648c0,5.136,2.794,9.14,7.3,9.14ZM629.311,95.2v7.1a13.486,13.486,0,0,1-4.886,1.059c-5.058,0-8.254-3.93-8.254-8.991,0-4.694,3.2-8.794,8.354-8.794a7.319,7.319,0,0,1,4.172,1.328l-.959,2.039a6.4,6.4,0,0,0-3.139-.905c-3.149,0-5.286,2.482-5.286,6.388,0,4.074,2.459,6.48,4.989,6.48a4.289,4.289,0,0,0,2.066-.416V95.2Zm5.656-7.024h1.3a2.5,2.5,0,0,1,2.725,2.774c0,2.307-1.4,3.337-2.8,3.411-.3.03-.985.055-1.224.074V88.173Zm7.467,14.884-3.467-7.121a5.791,5.791,0,0,0,2.979-5.113c0-3.344-2.043-4.964-5.335-4.964h-4.593v17.2h2.951V96.573H636.3l2.771,6.484Zm4.863-6.8c.686-2.264,1.374-4.352,1.992-7h.049c.688,2.656,1.3,4.739,1.939,7Zm1.128-10.392-5.946,17.2h2.555l1.5-4.694h5.185l1.346,4.694h3.3l-5.481-17.2Zm13.46,0h-4.593v17.2h2.951V96.573h1.323a5.622,5.622,0,0,0,5.654-5.749c0-3.345-2.04-4.964-5.333-4.964Zm-.412,8.5c-.306.028-1.026.051-1.232.074V88.173h1.323a2.491,2.491,0,0,1,2.706,2.774C664.269,93.253,662.875,94.284,661.473,94.358Zm19.4,8.7h-2.951V94.781H671.8v8.275h-2.915v-17.2H671.8v6.609h6.123v-6.56h2.951Zm2.822-17.2h2.932v17.2H683.7Zm16.189,3.122a6.182,6.182,0,0,0-3.024-.959c-3,0-5.18,2.482-5.18,6.388,0,4.075,2.406,6.48,5.257,6.48a5.557,5.557,0,0,0,2.947-.859l.811,2.139a7.5,7.5,0,0,1-3.88,1.18c-5.062,0-8.257-3.93-8.257-8.991,0-4.694,3.172-8.794,8.3-8.794a7.286,7.286,0,0,1,3.96,1.328l-.937,2.089Z" transform="translate(-481.25 6.15)" fill="#fff" fill-rule="evenodd"/>
        </g>
      </g>
    </g>
  </g>
</svg>
