<svg xmlns="http://www.w3.org/2000/svg" xmlns:xlink="http://www.w3.org/1999/xlink" width="271" height="179" viewBox="0 0 271 179">
  <defs>
    <clipPath id="clip-Small_4">
      <rect width="271" height="179"/>
    </clipPath>
  </defs>
  <g id="Small_4" data-name="Small – 4" clip-path="url(#clip-Small_4)">
    <g id="Twitch_Logo" data-name="Twitch Logo" transform="translate(37.383 56.957)">
      <path id="Path_187" data-name="Path 187" d="M196.232,53.872c-.166.088-.331.155-.486.254l-15.935,10.6a1.723,1.723,0,0,1-.894.265H168.183V59.427l-2.209,1.6c-1.745,1.248-3.479,2.5-5.234,3.733A1.425,1.425,0,0,1,160.1,65h-9.8V59.482l-.464.442c-1.612,1.612-3.225,3.236-4.848,4.826a1.1,1.1,0,0,1-.707.287H127.17a1.193,1.193,0,0,1-.74-.309q-2.418-2.385-4.815-4.793l-.453-.442-1.1,5.521H104.841a1.424,1.424,0,0,1-.85-.32c-1.767-1.5-3.5-3.037-5.245-4.561l-.8-.674-.364,5.521H79.708l-.629-5.521-.519.574c-1.314,1.535-2.639,3.07-3.942,4.616a.983.983,0,0,1-.828.375h-26.3a2.209,2.209,0,0,1-.8-.155q-2.374-.972-4.726-1.921l-.387-.144v2.209H27.386a1.756,1.756,0,0,1-.85-.232q-8.094-4.848-16.156-9.7a3.136,3.136,0,0,1-.6-.475C6.626,51.476,3.5,48.329.342,45.193A1.1,1.1,0,0,1,0,44.342V.005H20.838a1.1,1.1,0,0,1,.85.342Q26.337,5.041,31.042,9.7a1.27,1.27,0,0,0,.784.342h45.53V.005h38.131V9.944h10.1v5.588c.232-.2.364-.32.486-.442,1.6-1.6,3.2-3.213,4.815-4.793a1.2,1.2,0,0,1,.751-.309h10.171a1.336,1.336,0,0,0,1.1-.442Q147.544,4.875,152.2.259a1.1,1.1,0,0,1,.7-.309h20.948v10.1h11.783a1.171,1.171,0,0,1,.894.364c3.081,3.1,6.184,6.2,9.276,9.287.133.133.287.232.431.353ZM31.417,14.582V50.394H69.151a1.038,1.038,0,0,0,.663-.265q3.644-3.611,7.266-7.255a1.171,1.171,0,0,0,.3-.751V14.582H65.01V38.037H60.592V14.593H48.224V38.048H43.73V14.582Zm160.321,35.8V22.765a1.038,1.038,0,0,0-.309-.685c-2.374-2.4-4.771-4.771-7.145-7.156a1.182,1.182,0,0,0-.939-.375H169.321V4.5H157.008V50.372h12.357V26.939H179.4V50.383Zm-70.675-12.3H111.025v-11.2h10.027V14.549H110.97V4.511H98.646V42.057a1.1,1.1,0,0,0,.342.85c2.407,2.374,4.815,4.8,7.2,7.178a1.248,1.248,0,0,0,.8.32H121.1ZM26.9,26.906V14.549H16.841V4.522H4.484V42.145a1.226,1.226,0,0,0,.331.784c2.363,2.4,4.759,4.771,7.134,7.167a1.1,1.1,0,0,0,.806.331H26.9V38.081H16.885V26.906ZM152.491,14.56h-18.64a1.1,1.1,0,0,0-.74.309q-3.611,3.589-7.222,7.222a1.2,1.2,0,0,0-.309.751V42.2a1.1,1.1,0,0,0,.32.74q3.556,3.611,7.189,7.189a1.1,1.1,0,0,0,.74.3h18.618V38.07H137.959V26.884h14.532Zm-70.608,0V50.372h12.3V14.582Zm0-4.528h12.3V4.511H81.872Z" transform="translate(0.001 0.05)" fill="#fff"/>
    </g>
  </g>
</svg>
